<svg width="23" height="25" viewBox="0 0 23 25" fill="none" xmlns="http://www.w3.org/2000/svg">
<path d="M21.7222 0C22.0611 0 22.3861 0.131696 22.6257 0.366116C22.8654 0.600537 23 0.918479 23 1.25V23.75C23 24.0815 22.8654 24.3995 22.6257 24.6339C22.3861 24.8683 22.0611 25 21.7222 25H3.83333C3.49445 25 3.16944 24.8683 2.92981 24.6339C2.69018 24.3995 2.55556 24.0815 2.55556 23.75V21.25H0V18.75H2.55556V16.25H0V13.75H2.55556V11.25H0V8.75H2.55556V6.25H0V3.75H2.55556V1.25C2.55556 0.918479 2.69018 0.600537 2.92981 0.366116C3.16944 0.131696 3.49445 0 3.83333 0H21.7222ZM14.0556 7.5H11.5V11.25H7.66667V13.75H11.4987L11.5 17.5H14.0556L14.0543 13.75H17.8889V11.25H14.0556V7.5Z" fill="#514343"/>
</svg>
