<svg width="26" height="25" viewBox="0 0 26 25" fill="none" xmlns="http://www.w3.org/2000/svg">
<path d="M16.8462 16.0714V17.8571H18.7692V16.0714H16.8462ZM5.66923 0.196429L0.861538 3.76786C0.542308 4.00357 0.5 4.41071 0.5 4.76786V8.03571C0.5 9.04107 0.857692 9.96786 1.46154 10.7143V24.1071C1.46154 24.3439 1.56284 24.571 1.74317 24.7385C1.92349 24.9059 2.16806 25 2.42308 25H5.30769V15.1786C5.30769 14.9418 5.409 14.7147 5.58932 14.5472C5.76964 14.3798 6.01421 14.2857 6.26923 14.2857H12.0385C12.2935 14.2857 12.538 14.3798 12.7184 14.5472C12.8987 14.7147 13 14.9418 13 15.1786V25H23.5769C23.8319 25 24.0765 24.9059 24.2568 24.7385C24.4372 24.571 24.5385 24.3439 24.5385 24.1071V10.7143C25.1423 9.96786 25.5 9.04107 25.5 8.03571V4.76071C25.5 4.40357 25.4577 4.00357 25.1385 3.76786L20.3308 0.196429C20.1606 0.0696308 19.949 0.000360972 19.7308 0H6.26923C6.05102 0.000360972 5.83943 0.0696308 5.66923 0.196429V0.196429ZM2.42308 8.03571V5.35714H8.19231V8.03571C8.19231 8.74612 7.88839 9.42742 7.34742 9.92975C6.80645 10.4321 6.07274 10.7143 5.30769 10.7143C4.54264 10.7143 3.80893 10.4321 3.26796 9.92975C2.72699 9.42742 2.42308 8.74612 2.42308 8.03571ZM10.1154 8.03571V5.35714H15.8846V8.03571C15.8846 8.74612 15.5807 9.42742 15.0397 9.92975C14.4988 10.4321 13.765 10.7143 13 10.7143C12.235 10.7143 11.5012 10.4321 10.9603 9.92975C10.4193 9.42742 10.1154 8.74612 10.1154 8.03571ZM17.8077 8.03571V5.35714H23.5769V8.03571C23.5769 8.74612 23.273 9.42742 22.732 9.92975C22.1911 10.4321 21.4574 10.7143 20.6923 10.7143C19.9273 10.7143 19.1935 10.4321 18.6526 9.92975C18.1116 9.42742 17.8077 8.74612 17.8077 8.03571ZM4.20192 3.57143L6.60577 1.78571H9.21154L8.49038 3.57143H4.20192V3.57143ZM10.5423 3.57143L11.2635 1.78571H14.7115L15.3519 3.57143H10.5423V3.57143ZM16.7385 1.78571H19.3923L21.7962 3.57143H17.3788L16.7385 1.78571V1.78571ZM14.9231 15.1786C14.9231 14.9418 15.0244 14.7147 15.2047 14.5472C15.385 14.3798 15.6296 14.2857 15.8846 14.2857H19.7308C19.9858 14.2857 20.2304 14.3798 20.4107 14.5472C20.591 14.7147 20.6923 14.9418 20.6923 15.1786V18.75C20.6923 18.9868 20.591 19.2139 20.4107 19.3813C20.2304 19.5488 19.9858 19.6429 19.7308 19.6429H15.8846C15.6296 19.6429 15.385 19.5488 15.2047 19.3813C15.0244 19.2139 14.9231 18.9868 14.9231 18.75V15.1786ZM7.23077 25H11.0769V16.0714H7.23077V25Z" fill="#514343"/>
</svg>
