<svg width="63" height="50" viewBox="0 0 63 50" fill="none" xmlns="http://www.w3.org/2000/svg">
<g clip-path="url(#clip0_158_205)">
<path fill-rule="evenodd" clip-rule="evenodd" d="M23.2707 9.97803C8.84913 11.9039 0.824707 8.90182 0.824707 8.90182C7.51536 12.8688 17.7278 14.1665 27.9543 14.2243V46.2562C27.9543 48.3239 29.6156 50 31.665 50H32.0773C34.1267 50 35.7881 48.3239 35.7881 46.2562V14.0471C50.3332 13.3409 63.0001 10.7899 63.0001 10.7899C60.8738 9.95349 37.6922 8.05217 23.2707 9.97803Z" fill="url(#paint0_linear_158_205)"/>
<path d="M3.05127 8.38728C3.05127 8.38728 14.0504 8.94926 26.5647 7.48819C39.079 6.02712 57.4869 8.39103 61.0212 9.5674C61.0212 9.5674 40.3843 -0.830139 3.05127 8.38728Z" fill="url(#paint1_linear_158_205)"/>
<path d="M0 8.56905C0 8.56905 9.66217 -4.49465e-07 24.4061 0C39.15 4.49465e-07 52.6924 5.65713 52.6924 5.65713C52.6924 5.65713 23.0178 -1.78202 0 8.56905Z" fill="#C7BEA2"/>
</g>
<defs>
<linearGradient id="paint0_linear_158_205" x1="31.9124" y1="50" x2="31.9124" y2="8.90182" gradientUnits="userSpaceOnUse">
<stop offset="0.84375" stop-color="#9A9483"/>
<stop offset="1" stop-color="#AAA492"/>
</linearGradient>
<linearGradient id="paint1_linear_158_205" x1="32.0362" y1="4.57572" x2="32.33" y2="8.90149" gradientUnits="userSpaceOnUse">
<stop offset="0.682292" stop-color="#C7BEA2"/>
</linearGradient>
<clipPath id="clip0_158_205">
<rect width="63" height="50" fill="white"/>
</clipPath>
</defs>
</svg>
