<svg width="25" height="23" viewBox="0 0 25 23" fill="none" xmlns="http://www.w3.org/2000/svg">
<path d="M22.5195 5.25H3.90625C3.47461 5.25 3.125 4.90039 3.125 4.46875C3.125 4.03711 3.47461 3.6875 3.90625 3.6875H22.6562C23.0879 3.6875 23.4375 3.33789 23.4375 2.90625C23.4375 1.61182 22.3882 0.5625 21.0938 0.5625H3.125C1.39893 0.5625 0 1.96143 0 3.6875V19.3125C0 21.0386 1.39893 22.4375 3.125 22.4375H22.5195C23.8877 22.4375 25 21.3862 25 20.0938V7.59375C25 6.30127 23.8877 5.25 22.5195 5.25ZM20.3125 15.4062C19.4497 15.4062 18.75 14.7065 18.75 13.8438C18.75 12.981 19.4497 12.2812 20.3125 12.2812C21.1753 12.2812 21.875 12.981 21.875 13.8438C21.875 14.7065 21.1753 15.4062 20.3125 15.4062Z" fill="#514343"/>
</svg>
